/* XPM */
static char * icon_xpm[] = {
"48 48 18 1",
" 	c None",
".	c #FFFFFF",
"+	c #C5C5C5",
"@	c #555555",
"#	c #777777",
"$	c #868686",
"%	c #A5A5A5",
"&	c #BABABA",
"*	c #CBCBCB",
"=	c #737373",
"-	c #979797",
";	c #C2C2C2",
">	c #F4F4F4",
",	c #0D0D0D",
"'	c #F6F6F6",
")	c #E6E6E6",
"!	c #C1C1C1",
"~	c #151515",
"                                                ",
"                                                ",
"                                                ",
"                                ........        ",
"                             .............      ",
"                           ......++++++....     ",
"                         .....+++++++++++..@    ",
"                        ....++++++++++++++##    ",
"                      ....+++++++$%&++++++*#    ",
"                     ....++++++$==-;++++++*#@   ",
"                    ...+++++++$==%>.+++++++,,   ",
"                  ....++++++$==$'...+++++++,,   ",
"                 ....++++++$==%....++++++++,,   ",
"                ...+++++++$==*...+++++++++,,,   ",
"               ...+++++++$==*...++++++++++,,    ",
"              ...+++++++$==*...+++++++++++,,    ",
"             ...+++++++$==*...++++++++++++,,    ",
"            ...+++++++$==*...+++++++++++++,,    ",
"            ..++++++++==$...+++++++++++++,,     ",
"           ..++++++++$==...++++++++++++++,,     ",
"          ...+++++++$==*...+++++++++++++,,      ",
"         ...++++++++==$...++++++++++++++,,      ",
"        ...++++++++$==...++++++++++++++,,       ",
"        ..+++++++++==$...+++++++++++++,,,       ",
"       ..+++++++++$==...++++++++++++++,,        ",
"       ..+++++++++==$...+++++++++++++,,         ",
"      ...++++++++$==...+++++++++++++,,,         ",
"     ...+++++++++==$...++++++++++++,,,          ",
"     ..+++++++++$==*))+++++++++++++,,           ",
"     ..+++++++++==$*))++++++++++++,,            ",
"    ...+++++++++==*...+++++++++++,,,            ",
"    ..+++++++++$==*...++++++++++,,,             ",
"   ...+++++++++==$*))++++++++++,,,              ",
"   ))++++++++++==**))+++++++++,,,               ",
"   !*++++++++++==**))++++++++,,,                ",
"   %*++++++++++==**))+++++++,,,                 ",
"   %*++++++++++==*...+++++,,,,                  ",
"   -*++++++++++-%)...++++,,,,                   ",
"   #*++++++++++&!)..++++,,,                     ",
"   ~,*++++++++++++++++,,,,                      ",
"    ,,++++++++++++++,,,,,                       ",
"    ~,,+++++++++++,,,,,                         ",
"     ,,,,+++++++,,,,,                           ",
"      ,,,,,,,,,,,,,                             ",
"        ,,,,,,,,,                               ",
"                                                ",
"                                                ",
"                                                "};
