/* XPM */
static char * vocoder_xpm[] = {
"168 32 2 1",
" 	c None",
".	c #000000",
"                                                                                                                                                                        ",
"                                                                                                                                      ...                               ",
"                    .                                                                                                                                                   ",
"                  ...         ..........         .........                                                                          ....                                ",
"                 ...             .......           .......                                                                          ....                                ",
"               ...                                                                                                                                                      ",
"              ...              ....              ...                                                                              ...                                   ",
"             ...                ...              ..                                                                              ....                                   ",
"            ...                                                                                                                                                         ",
"           ...                 ....            ..                                                                               ...                                     ",
"          ...                  ....           ..                                                                                ...                                     ",
"         ...                                                                                                                                                            ",
"         ...                  ....          ..         .....   ....          ...   ....       .....   ....           ....     ....         ....   ....   .......  ..... ",
"        ...                   ....         ...        ....      ....        ...     ....     ....      ....        ....       ....        ...     ....      ...  ...... ",
"       ...                                                                                                                                                              ",
"       ...                    ...        ..        ....         ...      ...       ...    ....         ...      ....        ....       ....       ...      ... .        ",
"      ...                     ...        ..        ....         ....    ....              ....         ....     ....        ....       ...       ....      ....         ",
"      ...                                                                                                                                                               ",
"     ...                     ....     ...        ....          ....   ....              ....          ....    ....        ....       ...       ....      ....           ",
"     ...                     ....     ..        ....           ....   ....             ....           ....   ....         ....      ....     ....        ....           ",
"    ...                                                                                                                                                                 ",
"    ...                                                                                                                                                                 ",
"   ....                      ...   ..          ....          ....   ....              ....          ....   ....        .....      ......               ....             ",
"   ....                      ...   ..          ...          ....    ....              ...          ....    ....        .....      ....                 ...              ",
"   ...                                                                                                                                                                  ",
"  ....                                                                                                                                                                  ",
"  ....                      ......            ...         ....     ....        ..    ...         ....     ....      .  ...   ..  .....        ..     ....               ",
"  ....                      .....             ....       ....      .....      ..     ....       ....      ....     .  ....   .    ....       ..      ...                ",
"  ....                                                                                                                                                                  ",
"  ....                                                                                                                                                                  ",
"  ...                       ..                  ........             ......            ........           .....       ....         .......         ....                 ",
"                                                                                                                                                                        "};
