/* XPM */
static char * vubar_formant_xpm[] = {
"5 41 2 1",
" 	c None",
".	c #000000",
".....",
".    ",
".... ",
".    ",
".    ",
"     ",
" ... ",
".   .",
".   .",
".   .",
" ... ",
"     ",
".... ",
".   .",
".... ",
".  . ",
".   .",
"     ",
".. ..",
".....",
". . .",
".   .",
".   .",
"     ",
" ... ",
".   .",
".....",
".   .",
".   .",
"     ",
".   .",
"..  .",
". . .",
".  ..",
".   .",
"     ",
".....",
"  .  ",
"  .  ",
"  .  ",
"  .  "};
